:version 1.10
:name ASF
:units
  mass 1
  length 1
  angle deg
:documentation
  ASF file generated by Kaydara
:root
  axis xyz
  order  tx ty tz rx ry rz
  position 0 0 0
  orientation 0 0 0
:bonedata
  begin
    id 1
    name LeftUpLegDummy
    direction 1 -2.30186e-007 -8.31532e-007
    length 2.93387
    axis 0 0 0 xyz
  end
  begin
    id 2
    name LeftUpLeg
    direction -1.82929e-007 -1 -1.48925e-009
    length 17.3336
    axis -3.48766 0.00143442 -0.000521554 xyz
    dof rx ry rz
  end
  begin
    id 3
    name LeftLeg
    direction -1.82929e-007 -1 -5.23717e-011
    length 14.9995
    axis 3.68178 -0.00654042 -0.000282425 xyz
    dof rx ry rz
  end
  begin
    id 4
    name LeftFoot
    direction 8.31532e-007 -4.54534e-011 1
    length 6.74421
    axis 1.87234e-006 4.66016e-005 -5.96866e-006 xyz
    dof rx ry rz
  end
  begin
    id 5
    name LeftToes
    direction 0.00818058 -0.00485161 0.999955
    length 3.85048
    axis 1.06247e-005 4.65869e-005 -5.96999e-006 xyz
    dof rx ry rz
  end
  begin
    id 6
    name SpineDummy
    direction -5.8607e-008 0.943407 -0.331637
    length 5.93572
    axis 0 0 0 xyz
  end
  begin
    id 7
    name Spine
    direction -1.04988e-007 0.999988 0.00495137
    length 10.1015
    axis -0.001389 0.000121417 6.61666e-006 xyz
    dof rx ry rz
  end
  begin
    id 8
    name Spine1
    direction 0 0 0
    length 0
    axis -0.001389 0.00012144 6.56766e-006 xyz
    dof rx ry rz
  end
  begin
    id 9
    name RightShoulderDummy
    direction -0.98348 0.17941 -0.0240696
    length 3.59882
    axis -0.001389 0.00012144 6.56766e-006 xyz
  end
  begin
    id 10
    name RightShoulder
    direction -0.978693 0.204882 0.0135597
    length 2.70001
    axis 0.215806 0.000203631 -0.00679732 xyz
    dof rx ry rz
  end
  begin
    id 11
    name RightArm
    direction -1 3.85509e-006 8.31394e-007
    length 10.2459
    axis -23.2009 -0.134239 -0.964098 xyz
    dof rx ry rz
  end
  begin
    id 12
    name RightForeArm
    direction -1 3.85569e-006 8.3129e-007
    length 8.16799
    axis -9.92322 0.0658061 0.17887 xyz
    dof rx ry rz
  end
  begin
    id 13
    name RightHand
    direction -0.992843 -0.0414604 0.112003
    length 5.28593
    axis -0.00960638 0.00330669 -0.185225 xyz
    dof rx ry rz
  end
  begin
    id 14
    name LeftShoulder1Dummy
    direction 0.983523 0.179172 -0.0240748
    length 3.59866
    axis -0.001389 0.00012144 6.56766e-006 xyz
  end
  begin
    id 15
    name LeftShoulder1
    direction 0.978627 0.205195 0.0135605
    length 2.70019
    axis -0.001389 0.00012144 6.57583e-006 xyz
    dof rx ry rz
  end
  begin
    id 16
    name LeftArm
    direction 1 3.51895e-006 -8.60188e-007
    length 10.2459
    axis -23.1894 0.134785 0.967513 xyz
    dof rx ry rz
  end
  begin
    id 17
    name LeftForeArm
    direction 1 3.51921e-006 -7.32029e-007
    length 8.16799
    axis -9.91835 -0.0656957 -0.177789 xyz
    dof rx ry rz
  end
  begin
    id 18
    name LeftHand
    direction 0.992938 -0.0411636 0.11126
    length 5.32135
    axis -0.00960237 -0.00340661 0.185177 xyz
    dof rx ry rz
  end
  begin
    id 19
    name HEadDummy
    direction 1.01974e-006 0.999861 -0.016675
    length 2.99946
    axis -0.001389 0.00012144 6.56766e-006 xyz
  end
  begin
    id 20
    name HEad
    direction -0.0222689 0.980941 0.193023
    length 5.12695
    axis -0.001389 0.00012144 6.56766e-006 xyz
    dof rx ry rz
  end
  begin
    id 21
    name RightUpLegDummy
    direction -1 2.30186e-007 8.31532e-007
    length 2.93387
    axis 0 0 0 xyz
  end
  begin
    id 22
    name RightUpLeg
    direction -1.82966e-007 -1 1.56832e-007
    length 17.3336
    axis -3.4909 -0.000906625 0.00028951 xyz
    dof rx ry rz
  end
  begin
    id 23
    name RightLeg
    direction -1.82786e-007 -1 -1.80317e-007
    length 14.9995
    axis 3.68513 0.0193739 -0.131021 xyz
    dof rx ry rz
  end
  begin
    id 24
    name RightFoot
    direction 8.31721e-007 -4.63324e-011 1
    length 6.74421
    axis 4.81691e-005 -0.120479 -0.188785 xyz
    dof rx ry rz
  end
  begin
    id 25
    name RightToes
    direction 0.00124746 -0.014064 0.9999
    length 3.85082
    axis 0.000481921 0.542163 -0.142575 xyz
    dof rx ry rz
  end
:hierarchy
  begin
    root LeftUpLegDummy SpineDummy RightUpLegDummy
    LeftUpLegDummy LeftUpLeg
    LeftUpLeg LeftLeg
    LeftLeg LeftFoot
    LeftFoot LeftToes
    SpineDummy Spine
    Spine Spine1
    Spine1 RightShoulderDummy LeftShoulder1Dummy HEadDummy
    RightShoulderDummy RightShoulder
    RightShoulder RightArm
    RightArm RightForeArm
    RightForeArm RightHand
    LeftShoulder1Dummy LeftShoulder1
    LeftShoulder1 LeftArm
    LeftArm LeftForeArm
    LeftForeArm LeftHand
    HEadDummy HEad
    RightUpLegDummy RightUpLeg
    RightUpLeg RightLeg
    RightLeg RightFoot
    RightFoot RightToes
  end

:SAMPLES-PER-SECOND 30
:FULLY-SPECIFIED
:DEGREES
49
root  3.34038 33.7227 -6.87824 5.66834 8.92187 0.812209
LeftUpLeg  -7.32518 6.60699 6.56165
LeftLeg  14.1907 7.3394 1.35585
LeftFoot  0.360895 -0.00800248 -0.000308668
LeftToes  -22.9366 1.85109e-006 5.31342e-008
Spine  2.38773 1.38211 -0.177622
Spine1  4.24692 2.86025 -0.32384
RightShoulder  0.141105 5.35727 10.0932
RightArm  -13.3901 -5.17608 75.4011
RightForeArm  43.4917 17.8536 3.23647
RightHand  0.48124 -10.6424 -4.79044
LeftShoulder1  0.0685733 -0.132824 -10.4426
LeftArm  -11.2974 7.4142 -72.1321
LeftForeArm  32.2208 -15.6846 -2.82999
LeftHand  0.0272372 1.52689 1.42808
HEad  -17.4877 -12.4451 3.99916
RightUpLeg  -8.31869 -4.39662 -8.24749
RightLeg  10.9007 3.78859 0.480889
RightFoot  2.35772 -0.0161977 0.255738
RightToes  -41.1351 -0.227436 -0.321931
50
root  3.33367 33.7147 -6.8681 5.63217 9.2212 0.753459
LeftUpLeg  -7.39211 6.47732 6.65427
LeftLeg  14.2897 7.17638 1.33864
LeftFoot  0.2971 -0.00708854 -0.0109102
LeftToes  -22.9135 1.85109e-006 5.31342e-008
Spine  2.37785 1.48028 -0.214427
Spine1  4.22845 3.07795 -0.421149
RightShoulder  0.146037 5.3926 10.2595
RightArm  -14.7727 -5.51872 74.9568
RightForeArm  43.0498 17.2028 3.11093
RightHand  0.509803 -11.1208 -4.8602
LeftShoulder1  0.0681231 -0.171985 -10.3675
LeftArm  -11.9246 7.99938 -71.9232
LeftForeArm  32.7137 -15.3121 -2.75903
LeftHand  0.026622 1.60496 1.3757
HEad  -17.5584 -12.4803 4.13425
RightUpLeg  -8.26913 -4.52959 -8.17352
RightLeg  11.0381 3.63138 0.469834
RightFoot  2.26246 -0.0161124 0.244952
RightToes  -41.1421 -0.227181 -0.321708
51
root  3.3171 33.7006 -6.86697 5.66028 9.42013 0.739892
LeftUpLeg  -7.58748 6.39544 6.70692
LeftLeg  14.5514 7.05696 1.34972
LeftFoot  0.186323 -0.00572603 -0.0283465
LeftToes  -22.9541 1.85109e-006 5.31342e-008
Spine  2.3583 1.58321 -0.254637
Spine1  4.18265 3.30435 -0.52524
RightShoulder  0.155192 5.53265 10.338
RightArm  -17.8309 -5.85773 74.6605
RightForeArm  43.5891 16.0375 2.88659
RightHand  0.613496 -11.4418 -5.7448
LeftShoulder1  0.0677225 -0.175608 -10.3524
LeftArm  -12.5338 8.55174 -71.5965
LeftForeArm  33.1411 -14.8345 -2.66858
LeftHand  0.0270247 1.65263 1.4973
HEad  -17.659 -12.5222 4.24005
RightUpLeg  -8.38393 -4.53209 -8.12232
RightLeg  11.3311 3.44621 0.463845
RightFoot  2.10301 -0.0158217 0.231388
RightToes  -41.1813 -0.226911 -0.321468
52
root  3.30265 33.6862 -6.86205 5.67205 9.69334 0.727141
LeftUpLeg  -7.7769 6.32196 6.75937
LeftLeg  14.8091 6.86259 1.3446
LeftFoot  0.0810316 -0.00435524 -0.0458271
LeftToes  -22.9945 1.85109e-006 5.31342e-008
Spine  2.34554 1.62717 -0.27708
Spine1  4.15205 3.40953 -0.597246
RightShoulder  0.165805 5.7109 10.4608
RightArm  -21.6032 -6.20883 74.2488
RightForeArm  44.5912 14.6133 2.61558
RightHand  0.752261 -11.6745 -6.97444
LeftShoulder1  0.0673681 -0.154099 -10.3674
LeftArm  -13.2957 9.10386 -71.2008
LeftForeArm  33.4146 -14.4078 -2.58819
LeftHand  0.0278862 1.71987 1.69965
HEad  -17.74 -12.5517 4.27302
RightUpLeg  -8.47145 -4.57719 -8.07909
RightLeg  11.6397 3.22275 0.451505
RightFoot  1.90166 -0.0152979 0.214649
RightToes  -41.2165 -0.226622 -0.32121
53
root  3.28821 33.6741 -6.85819 5.67396 9.90926 0.701696
LeftUpLeg  -7.94748 6.21657 6.81676
LeftLeg  15.0701 6.77107 1.35868
LeftFoot  0.00440512 -0.00319868 -0.0599464
LeftToes  -23.127 1.85109e-006 5.31342e-008
Spine  2.33953 1.65385 -0.287446
Spine1  4.14028 3.46864 -0.634342
RightShoulder  0.175966 5.96107 10.5635
RightArm  -25.5122 -6.66376 73.6636
RightForeArm  45.6983 13.2198 2.35372
RightHand  0.872267 -11.9399 -7.95232
LeftShoulder1  0.0670564 -0.135442 -10.3688
LeftArm  -14.3263 9.5616 -70.8013
LeftForeArm  34.2744 -13.8555 -2.4842
LeftHand  0.0273061 1.73865 1.6081
HEad  -17.7964 -12.5878 4.26993
RightUpLeg  -8.57904 -4.63293 -8.02817
RightLeg  11.9765 3.08246 0.450345
RightFoot  1.70407 -0.0149469 0.201062
RightToes  -41.1265 -0.22631 -0.320932
54
root  3.27382 33.6636 -6.85552 5.64662 10.1258 0.664089
LeftUpLeg  -8.06194 6.17097 6.8971
LeftLeg  15.2593 6.59169 1.34539
LeftFoot  -0.103651 -0.00181711 -0.0775826
LeftToes  -23.0654 1.85109e-006 5.31342e-008
Spine  2.33627 1.65952 -0.28226
Spine1  4.14517 3.47394 -0.629946
RightShoulder  0.181924 6.16364 10.6383
RightArm  -28.4141 -7.25913 72.878
RightForeArm  46.3132 12.0507 2.13689
RightHand  0.967567 -12.2997 -8.58716
LeftShoulder1  0.0667839 -0.145384 -10.3038
LeftArm  -15.1017 9.96923 -70.459
LeftForeArm  34.8545 -13.2683 -2.37444
LeftHand  0.0274539 1.78507 1.6593
HEad  -17.852 -12.6397 4.2849
RightUpLeg  -8.60701 -4.71372 -7.96967
RightLeg  12.1746 2.94229 0.440295
RightFoot  1.55326 -0.0146173 0.188311
RightToes  -40.9872 -0.225972 -0.320635
55
root  3.25084 33.6568 -6.86963 5.64526 10.2493 0.643854
LeftUpLeg  -8.06545 5.70278 6.94191
LeftLeg  15.1482 6.91458 1.39713
LeftFoot  0.01163 -0.00218439 -0.0681125
LeftToes  -23.1606 1.85109e-006 5.31342e-008
Spine  2.33367 1.65936 -0.277929
Spine1  4.1535 3.45906 -0.615187
RightShoulder  0.182908 6.30324 10.7178
RightArm  -30.2227 -7.92947 71.9885
RightForeArm  47.0004 11.1784 1.97605
RightHand  1.00753 -12.5394 -8.77677
LeftShoulder1  0.0665473 -0.155768 -10.3141
LeftArm  -15.6123 10.3106 -70.0287
LeftForeArm  35.2873 -12.7678 -2.28137
LeftHand  0.0286755 1.8343 1.87944
HEad  -17.8932 -12.6486 4.26934
RightUpLeg  -8.72913 -4.72399 -7.90815
RightLeg  12.4277 2.82125 0.43494
RightFoot  1.43688 -0.0144036 0.177892
RightToes  -40.9515 -0.225601 -0.320317
